<svg width="133" height="52" viewBox="0 0 133 52" fill="none" xmlns="http://www.w3.org/2000/svg">
<rect width="133" height="52" rx="10" fill="#030303"/>
<path fill-rule="evenodd" clip-rule="evenodd" d="M36.8304 27.0501C36.7893 22.952 40.1721 20.9863 40.3231 20.8875C38.4224 18.1076 35.4607 17.7261 34.4063 17.6832C31.8884 17.4269 29.49 19.1665 28.2121 19.1665C26.9374 19.1665 24.9634 17.7205 22.8752 17.757C20.1274 17.7981 17.5955 19.3553 16.1814 21.8148C13.3283 26.7639 15.4519 34.0991 18.2318 38.1164C19.5913 40.0795 21.212 42.2892 23.3382 42.2083C25.388 42.1273 26.1618 40.8822 28.6392 40.8822C31.1165 40.8822 31.8127 42.2083 33.9807 42.1666C36.1845 42.1267 37.5818 40.1655 38.9303 38.1942C40.4902 35.9133 41.1329 33.7049 41.1708 33.5925C41.1231 33.5706 36.8746 31.9427 36.8304 27.0501ZM32.7566 15.0246C33.8842 13.6555 34.6483 11.7529 34.4409 9.85916C32.8131 9.92526 30.843 10.9412 29.6749 12.309C28.6281 13.5227 27.7125 15.4548 27.9578 17.3145C29.773 17.4552 31.625 16.3911 32.7566 15.0246Z" fill="white"/>
<path d="M51 38L56.104 26.72H57.832L63 38H60.904L59.528 34.832L60.36 35.392H53.592L54.456 34.832L53.08 38H51ZM56.952 28.928L54.696 34.272L54.28 33.776H59.656L59.32 34.272L57.016 28.928H56.952ZM63.688 41.456V31.936C63.688 31.6053 63.6773 31.2693 63.656 30.928C63.6347 30.5867 63.6027 30.2507 63.56 29.92H65.496L65.672 31.616H65.496C65.656 31.0507 65.992 30.6027 66.504 30.272C67.0267 29.9307 67.6293 29.76 68.312 29.76C69.0267 29.76 69.6507 29.9307 70.184 30.272C70.7173 30.6027 71.1333 31.0827 71.432 31.712C71.7307 32.3307 71.88 33.0773 71.88 33.952C71.88 34.8267 71.7307 35.5787 71.432 36.208C71.1333 36.8373 70.7173 37.3227 70.184 37.664C69.6507 37.9947 69.0267 38.16 68.312 38.16C67.64 38.16 67.048 37.9947 66.536 37.664C66.024 37.3333 65.6827 36.8907 65.512 36.336H65.688V41.456H63.688ZM67.752 36.624C68.392 36.624 68.904 36.4053 69.288 35.968C69.672 35.52 69.864 34.848 69.864 33.952C69.864 33.056 69.672 32.3893 69.288 31.952C68.904 31.5147 68.392 31.296 67.752 31.296C67.1227 31.296 66.616 31.5147 66.232 31.952C65.848 32.3893 65.656 33.056 65.656 33.952C65.656 34.848 65.848 35.52 66.232 35.968C66.616 36.4053 67.1227 36.624 67.752 36.624ZM73.2099 41.456V31.936C73.2099 31.6053 73.1992 31.2693 73.1779 30.928C73.1565 30.5867 73.1245 30.2507 73.0819 29.92H75.0179L75.1939 31.616H75.0179C75.1779 31.0507 75.5139 30.6027 76.0259 30.272C76.5485 29.9307 77.1512 29.76 77.8339 29.76C78.5485 29.76 79.1725 29.9307 79.7059 30.272C80.2392 30.6027 80.6552 31.0827 80.9539 31.712C81.2525 32.3307 81.4019 33.0773 81.4019 33.952C81.4019 34.8267 81.2525 35.5787 80.9539 36.208C80.6552 36.8373 80.2392 37.3227 79.7059 37.664C79.1725 37.9947 78.5485 38.16 77.8339 38.16C77.1619 38.16 76.5699 37.9947 76.0579 37.664C75.5459 37.3333 75.2045 36.8907 75.0339 36.336H75.2099V41.456H73.2099ZM77.2739 36.624C77.9139 36.624 78.4259 36.4053 78.8099 35.968C79.1939 35.52 79.3859 34.848 79.3859 33.952C79.3859 33.056 79.1939 32.3893 78.8099 31.952C78.4259 31.5147 77.9139 31.296 77.2739 31.296C76.6445 31.296 76.1379 31.5147 75.7539 31.952C75.3699 32.3893 75.1779 33.056 75.1779 33.952C75.1779 34.848 75.3699 35.52 75.7539 35.968C76.1379 36.4053 76.6445 36.624 77.2739 36.624ZM89.6024 38.16C88.909 38.16 88.269 38.08 87.6824 37.92C87.1064 37.7493 86.621 37.5147 86.2264 37.216L86.7864 35.872C87.1917 36.1493 87.6397 36.3627 88.1304 36.512C88.621 36.6613 89.117 36.736 89.6184 36.736C90.1517 36.736 90.5464 36.6453 90.8024 36.464C91.069 36.2827 91.2024 36.0373 91.2024 35.728C91.2024 35.4827 91.117 35.2907 90.9464 35.152C90.7864 35.0027 90.525 34.8907 90.1624 34.816L88.5624 34.512C87.8797 34.3627 87.357 34.1067 86.9944 33.744C86.6424 33.3813 86.4664 32.9067 86.4664 32.32C86.4664 31.8187 86.5997 31.376 86.8664 30.992C87.1437 30.608 87.533 30.3093 88.0344 30.096C88.5464 29.872 89.1437 29.76 89.8264 29.76C90.4237 29.76 90.9837 29.84 91.5064 30C92.0397 30.16 92.4877 30.4 92.8504 30.72L92.2744 32.016C91.9437 31.7493 91.565 31.5413 91.1384 31.392C90.7117 31.2427 90.2957 31.168 89.8904 31.168C89.3357 31.168 88.9304 31.2693 88.6744 31.472C88.4184 31.664 88.2904 31.9147 88.2904 32.224C88.2904 32.4587 88.365 32.656 88.5144 32.816C88.6744 32.9653 88.9197 33.0773 89.2504 33.152L90.8504 33.456C91.565 33.5947 92.1037 33.84 92.4664 34.192C92.8397 34.5333 93.0264 35.0027 93.0264 35.6C93.0264 36.1333 92.8824 36.592 92.5944 36.976C92.3064 37.36 91.9064 37.6533 91.3944 37.856C90.8824 38.0587 90.285 38.16 89.6024 38.16ZM97.7159 38.16C96.7559 38.16 96.0305 37.9093 95.5399 37.408C95.0492 36.9067 94.8039 36.1547 94.8039 35.152V31.424H93.2519V29.92H94.8039V27.856L96.8039 27.344V29.92H98.9639V31.424H96.8039V35.024C96.8039 35.5787 96.9105 35.968 97.1239 36.192C97.3372 36.416 97.6305 36.528 98.0039 36.528C98.2065 36.528 98.3772 36.512 98.5159 36.48C98.6652 36.448 98.8092 36.4053 98.9479 36.352V37.936C98.7665 38.0107 98.5639 38.064 98.3399 38.096C98.1265 38.1387 97.9185 38.16 97.7159 38.16ZM103.492 38.16C102.66 38.16 101.94 37.9893 101.332 37.648C100.724 37.3067 100.25 36.8213 99.9082 36.192C99.5776 35.5627 99.4122 34.816 99.4122 33.952C99.4122 33.088 99.5776 32.3467 99.9082 31.728C100.25 31.0987 100.724 30.6133 101.332 30.272C101.94 29.9307 102.66 29.76 103.492 29.76C104.324 29.76 105.044 29.9307 105.652 30.272C106.271 30.6133 106.746 31.0987 107.076 31.728C107.418 32.3467 107.588 33.088 107.588 33.952C107.588 34.816 107.418 35.5627 107.076 36.192C106.746 36.8213 106.271 37.3067 105.652 37.648C105.044 37.9893 104.324 38.16 103.492 38.16ZM103.492 36.624C104.122 36.624 104.623 36.4053 104.996 35.968C105.37 35.52 105.556 34.848 105.556 33.952C105.556 33.056 105.37 32.3893 104.996 31.952C104.623 31.5147 104.122 31.296 103.492 31.296C102.863 31.296 102.362 31.5147 101.988 31.952C101.615 32.3893 101.428 33.056 101.428 33.952C101.428 34.848 101.615 35.52 101.988 35.968C102.362 36.4053 102.863 36.624 103.492 36.624ZM108.897 38V31.984C108.897 31.6427 108.886 31.296 108.865 30.944C108.854 30.592 108.828 30.2507 108.785 29.92H110.721L110.945 32.128H110.625C110.732 31.5947 110.908 31.152 111.153 30.8C111.409 30.448 111.718 30.1867 112.081 30.016C112.444 29.8453 112.838 29.76 113.265 29.76C113.457 29.76 113.612 29.7707 113.729 29.792C113.846 29.8027 113.964 29.8293 114.081 29.872L114.065 31.632C113.862 31.5467 113.686 31.4933 113.537 31.472C113.398 31.4507 113.222 31.44 113.009 31.44C112.55 31.44 112.161 31.536 111.841 31.728C111.532 31.92 111.297 32.1867 111.137 32.528C110.988 32.8693 110.913 33.2587 110.913 33.696V38H108.897ZM118.573 38.16C117.219 38.16 116.157 37.7867 115.389 37.04C114.621 36.2933 114.237 35.2693 114.237 33.968C114.237 33.1253 114.403 32.3893 114.733 31.76C115.064 31.1307 115.523 30.64 116.109 30.288C116.707 29.936 117.4 29.76 118.189 29.76C118.968 29.76 119.619 29.9253 120.141 30.256C120.664 30.5867 121.059 31.0507 121.325 31.648C121.603 32.2453 121.741 32.944 121.741 33.744V34.272H115.853V33.216H120.317L120.045 33.44C120.045 32.6933 119.885 32.1227 119.565 31.728C119.256 31.3333 118.803 31.136 118.205 31.136C117.544 31.136 117.032 31.3707 116.669 31.84C116.317 32.3093 116.141 32.9653 116.141 33.808V34.016C116.141 34.8907 116.355 35.5467 116.781 35.984C117.219 36.4107 117.832 36.624 118.621 36.624C119.08 36.624 119.507 36.5653 119.901 36.448C120.307 36.32 120.691 36.1173 121.053 35.84L121.645 37.184C121.261 37.4933 120.803 37.7333 120.269 37.904C119.736 38.0747 119.171 38.16 118.573 38.16Z" fill="white"/>
<path d="M51.78 20V12.95H54.34C55.1467 12.95 55.8267 13.09 56.38 13.37C56.94 13.6433 57.3633 14.0433 57.65 14.57C57.9367 15.09 58.08 15.7233 58.08 16.47C58.08 17.21 57.9367 17.8433 57.65 18.37C57.3633 18.8967 56.94 19.3 56.38 19.58C55.8267 19.86 55.1467 20 54.34 20H51.78ZM53.07 18.93H54.26C55.1133 18.93 55.7467 18.7267 56.16 18.32C56.5733 17.9133 56.78 17.2967 56.78 16.47C56.78 15.6367 56.5733 15.02 56.16 14.62C55.7467 14.2133 55.1133 14.01 54.26 14.01H53.07V18.93ZM61.3272 20.1C60.8072 20.1 60.3572 19.9933 59.9772 19.78C59.5972 19.5667 59.3005 19.2633 59.0872 18.87C58.8805 18.4767 58.7772 18.01 58.7772 17.47C58.7772 16.93 58.8805 16.4667 59.0872 16.08C59.3005 15.6867 59.5972 15.3833 59.9772 15.17C60.3572 14.9567 60.8072 14.85 61.3272 14.85C61.8472 14.85 62.2972 14.9567 62.6772 15.17C63.0639 15.3833 63.3605 15.6867 63.5672 16.08C63.7805 16.4667 63.8872 16.93 63.8872 17.47C63.8872 18.01 63.7805 18.4767 63.5672 18.87C63.3605 19.2633 63.0639 19.5667 62.6772 19.78C62.2972 19.9933 61.8472 20.1 61.3272 20.1ZM61.3272 19.14C61.7205 19.14 62.0339 19.0033 62.2672 18.73C62.5005 18.45 62.6172 18.03 62.6172 17.47C62.6172 16.91 62.5005 16.4933 62.2672 16.22C62.0339 15.9467 61.7205 15.81 61.3272 15.81C60.9339 15.81 60.6205 15.9467 60.3872 16.22C60.1539 16.4933 60.0372 16.91 60.0372 17.47C60.0372 18.03 60.1539 18.45 60.3872 18.73C60.6205 19.0033 60.9339 19.14 61.3272 19.14ZM66.0175 20L64.0475 14.95H65.3375L66.7575 18.88H66.4975L67.9375 14.95H68.8275L70.2575 18.88H70.0275L71.4375 14.95H72.6575L70.6875 20H69.5875L68.0775 15.98H68.6075L67.1275 20H66.0175ZM73.1956 20V16.21C73.1956 16.0033 73.189 15.7933 73.1756 15.58C73.1623 15.3667 73.1423 15.1567 73.1156 14.95H74.3256L74.4256 15.95H74.3056C74.4656 15.5967 74.7023 15.3267 75.0156 15.14C75.329 14.9467 75.6923 14.85 76.1056 14.85C76.699 14.85 77.1456 15.0167 77.4456 15.35C77.7456 15.6833 77.8956 16.2033 77.8956 16.91V20H76.6456V16.97C76.6456 16.5633 76.5656 16.2733 76.4056 16.1C76.2523 15.92 76.019 15.83 75.7056 15.83C75.319 15.83 75.0123 15.95 74.7856 16.19C74.559 16.43 74.4456 16.75 74.4456 17.15V20H73.1956ZM78.971 20V12.64H80.221V20H78.971ZM83.6084 20.1C83.0884 20.1 82.6384 19.9933 82.2584 19.78C81.8784 19.5667 81.5818 19.2633 81.3684 18.87C81.1618 18.4767 81.0584 18.01 81.0584 17.47C81.0584 16.93 81.1618 16.4667 81.3684 16.08C81.5818 15.6867 81.8784 15.3833 82.2584 15.17C82.6384 14.9567 83.0884 14.85 83.6084 14.85C84.1284 14.85 84.5784 14.9567 84.9584 15.17C85.3451 15.3833 85.6418 15.6867 85.8484 16.08C86.0618 16.4667 86.1684 16.93 86.1684 17.47C86.1684 18.01 86.0618 18.4767 85.8484 18.87C85.6418 19.2633 85.3451 19.5667 84.9584 19.78C84.5784 19.9933 84.1284 20.1 83.6084 20.1ZM83.6084 19.14C84.0018 19.14 84.3151 19.0033 84.5484 18.73C84.7818 18.45 84.8984 18.03 84.8984 17.47C84.8984 16.91 84.7818 16.4933 84.5484 16.22C84.3151 15.9467 84.0018 15.81 83.6084 15.81C83.2151 15.81 82.9018 15.9467 82.6684 16.22C82.4351 16.4933 82.3184 16.91 82.3184 17.47C82.3184 18.03 82.4351 18.45 82.6684 18.73C82.9018 19.0033 83.2151 19.14 83.6084 19.14ZM88.9464 20.1C88.5064 20.1 88.1197 19.9967 87.7864 19.79C87.4531 19.5767 87.1931 19.2733 87.0064 18.88C86.8197 18.4867 86.7264 18.0167 86.7264 17.47C86.7264 16.9233 86.8197 16.4567 87.0064 16.07C87.1931 15.6767 87.4531 15.3767 87.7864 15.17C88.1197 14.9567 88.5064 14.85 88.9464 14.85C89.3731 14.85 89.7464 14.9567 90.0664 15.17C90.3931 15.3767 90.6097 15.6567 90.7164 16.01H90.6064L90.7164 14.95H91.9164C91.8964 15.1567 91.8764 15.3667 91.8564 15.58C91.8431 15.7933 91.8364 16.0033 91.8364 16.21V20H90.5964L90.5864 18.96H90.7064C90.5997 19.3067 90.3831 19.5833 90.0564 19.79C89.7297 19.9967 89.3597 20.1 88.9464 20.1ZM89.2964 19.14C89.6897 19.14 90.0064 19.0033 90.2464 18.73C90.4864 18.45 90.6064 18.03 90.6064 17.47C90.6064 16.91 90.4864 16.4933 90.2464 16.22C90.0064 15.9467 89.6897 15.81 89.2964 15.81C88.9031 15.81 88.5864 15.9467 88.3464 16.22C88.1064 16.4933 87.9864 16.91 87.9864 17.47C87.9864 18.03 88.1031 18.45 88.3364 18.73C88.5764 19.0033 88.8964 19.14 89.2964 19.14ZM94.9076 20.1C94.4676 20.1 94.0776 19.9967 93.7376 19.79C93.4042 19.5767 93.1442 19.2733 92.9576 18.88C92.7709 18.4867 92.6776 18.0167 92.6776 17.47C92.6776 16.9233 92.7709 16.4567 92.9576 16.07C93.1442 15.6767 93.4042 15.3767 93.7376 15.17C94.0776 14.9567 94.4676 14.85 94.9076 14.85C95.3276 14.85 95.6976 14.9533 96.0176 15.16C96.3442 15.36 96.5609 15.6333 96.6676 15.98H96.5376V12.64H97.7876V20H96.5576V18.93H96.6776C96.5709 19.29 96.3542 19.5767 96.0276 19.79C95.7076 19.9967 95.3342 20.1 94.9076 20.1ZM95.2576 19.14C95.6509 19.14 95.9676 19.0033 96.2076 18.73C96.4476 18.45 96.5676 18.03 96.5676 17.47C96.5676 16.91 96.4476 16.4933 96.2076 16.22C95.9676 15.9467 95.6509 15.81 95.2576 15.81C94.8642 15.81 94.5442 15.9467 94.2976 16.22C94.0576 16.4933 93.9376 16.91 93.9376 17.47C93.9376 18.03 94.0576 18.45 94.2976 18.73C94.5442 19.0033 94.8642 19.14 95.2576 19.14ZM103.673 20.1C103.153 20.1 102.703 19.9933 102.323 19.78C101.943 19.5667 101.646 19.2633 101.433 18.87C101.226 18.4767 101.123 18.01 101.123 17.47C101.123 16.93 101.226 16.4667 101.433 16.08C101.646 15.6867 101.943 15.3833 102.323 15.17C102.703 14.9567 103.153 14.85 103.673 14.85C104.193 14.85 104.643 14.9567 105.023 15.17C105.41 15.3833 105.706 15.6867 105.913 16.08C106.126 16.4667 106.233 16.93 106.233 17.47C106.233 18.01 106.126 18.4767 105.913 18.87C105.706 19.2633 105.41 19.5667 105.023 19.78C104.643 19.9933 104.193 20.1 103.673 20.1ZM103.673 19.14C104.066 19.14 104.38 19.0033 104.613 18.73C104.846 18.45 104.963 18.03 104.963 17.47C104.963 16.91 104.846 16.4933 104.613 16.22C104.38 15.9467 104.066 15.81 103.673 15.81C103.28 15.81 102.966 15.9467 102.733 16.22C102.5 16.4933 102.383 16.91 102.383 17.47C102.383 18.03 102.5 18.45 102.733 18.73C102.966 19.0033 103.28 19.14 103.673 19.14ZM107.061 20V16.21C107.061 16.0033 107.054 15.7933 107.041 15.58C107.028 15.3667 107.008 15.1567 106.981 14.95H108.191L108.291 15.95H108.171C108.331 15.5967 108.568 15.3267 108.881 15.14C109.194 14.9467 109.558 14.85 109.971 14.85C110.564 14.85 111.011 15.0167 111.311 15.35C111.611 15.6833 111.761 16.2033 111.761 16.91V20H110.511V16.97C110.511 16.5633 110.431 16.2733 110.271 16.1C110.118 15.92 109.884 15.83 109.571 15.83C109.184 15.83 108.878 15.95 108.651 16.19C108.424 16.43 108.311 16.75 108.311 17.15V20H107.061Z" fill="white"/>
</svg>
