<svg width="149" height="52" viewBox="0 0 149 52" fill="none" xmlns="http://www.w3.org/2000/svg">
<rect width="149" height="52" rx="10" fill="#030303"/>
<path d="M57.688 38.16C56.4187 38.16 55.352 37.9253 54.488 37.456C53.624 36.9867 52.9733 36.32 52.536 35.456C52.0987 34.592 51.88 33.568 51.88 32.384C51.88 31.1893 52.1147 30.16 52.584 29.296C53.0533 28.4213 53.7253 27.7493 54.6 27.28C55.4853 26.8 56.5467 26.56 57.784 26.56C58.6053 26.56 59.3253 26.672 59.944 26.896C60.5627 27.1093 61.1067 27.424 61.576 27.84L60.888 29.44C60.5467 29.1733 60.2213 28.96 59.912 28.8C59.6027 28.64 59.2827 28.528 58.952 28.464C58.6213 28.3893 58.2373 28.352 57.8 28.352C56.5627 28.352 55.624 28.704 54.984 29.408C54.3547 30.1013 54.04 31.0987 54.04 32.4C54.04 33.7013 54.3387 34.6933 54.936 35.376C55.544 36.0587 56.4933 36.4 57.784 36.4C58.2213 36.4 58.6587 36.3573 59.096 36.272C59.544 36.1867 59.9813 36.064 60.408 35.904L60.024 36.768V33.392H57.384V31.888H61.736V37.312C61.2133 37.5787 60.5893 37.7867 59.864 37.936C59.1387 38.0853 58.4133 38.16 57.688 38.16ZM67.1798 38.16C66.3478 38.16 65.6278 37.9893 65.0198 37.648C64.4118 37.3067 63.9371 36.8213 63.5958 36.192C63.2651 35.5627 63.0998 34.816 63.0998 33.952C63.0998 33.088 63.2651 32.3467 63.5958 31.728C63.9371 31.0987 64.4118 30.6133 65.0198 30.272C65.6278 29.9307 66.3478 29.76 67.1798 29.76C68.0118 29.76 68.7318 29.9307 69.3398 30.272C69.9584 30.6133 70.4331 31.0987 70.7638 31.728C71.1051 32.3467 71.2758 33.088 71.2758 33.952C71.2758 34.816 71.1051 35.5627 70.7638 36.192C70.4331 36.8213 69.9584 37.3067 69.3398 37.648C68.7318 37.9893 68.0118 38.16 67.1798 38.16ZM67.1798 36.624C67.8091 36.624 68.3104 36.4053 68.6838 35.968C69.0571 35.52 69.2438 34.848 69.2438 33.952C69.2438 33.056 69.0571 32.3893 68.6838 31.952C68.3104 31.5147 67.8091 31.296 67.1798 31.296C66.5504 31.296 66.0491 31.5147 65.6758 31.952C65.3024 32.3893 65.1158 33.056 65.1158 33.952C65.1158 34.848 65.3024 35.52 65.6758 35.968C66.0491 36.4053 66.5504 36.624 67.1798 36.624ZM76.2485 38.16C75.4165 38.16 74.6965 37.9893 74.0885 37.648C73.4805 37.3067 73.0058 36.8213 72.6645 36.192C72.3338 35.5627 72.1685 34.816 72.1685 33.952C72.1685 33.088 72.3338 32.3467 72.6645 31.728C73.0058 31.0987 73.4805 30.6133 74.0885 30.272C74.6965 29.9307 75.4165 29.76 76.2485 29.76C77.0805 29.76 77.8005 29.9307 78.4085 30.272C79.0272 30.6133 79.5018 31.0987 79.8325 31.728C80.1738 32.3467 80.3445 33.088 80.3445 33.952C80.3445 34.816 80.1738 35.5627 79.8325 36.192C79.5018 36.8213 79.0272 37.3067 78.4085 37.648C77.8005 37.9893 77.0805 38.16 76.2485 38.16ZM76.2485 36.624C76.8778 36.624 77.3792 36.4053 77.7525 35.968C78.1258 35.52 78.3125 34.848 78.3125 33.952C78.3125 33.056 78.1258 32.3893 77.7525 31.952C77.3792 31.5147 76.8778 31.296 76.2485 31.296C75.6192 31.296 75.1178 31.5147 74.7445 31.952C74.3712 32.3893 74.1845 33.056 74.1845 33.952C74.1845 34.848 74.3712 35.52 74.7445 35.968C75.1178 36.4053 75.6192 36.624 76.2485 36.624ZM85.4132 41.584C84.6666 41.584 83.9892 41.504 83.3812 41.344C82.7839 41.184 82.2506 40.9387 81.7812 40.608L82.2132 39.168C82.5226 39.3707 82.8426 39.536 83.1732 39.664C83.5039 39.792 83.8452 39.888 84.1972 39.952C84.5492 40.016 84.9066 40.048 85.2692 40.048C86.0159 40.048 86.5706 39.8613 86.9332 39.488C87.3066 39.1253 87.4932 38.6027 87.4932 37.92V35.984H87.6532C87.4826 36.5387 87.1359 36.9813 86.6132 37.312C86.1012 37.6427 85.5092 37.808 84.8372 37.808C84.1119 37.808 83.4772 37.648 82.9332 37.328C82.3999 36.9973 81.9839 36.528 81.6852 35.92C81.3866 35.312 81.2372 34.5973 81.2372 33.776C81.2372 32.9547 81.3866 32.2453 81.6852 31.648C81.9839 31.04 82.3999 30.576 82.9332 30.256C83.4772 29.9253 84.1119 29.76 84.8372 29.76C85.5199 29.76 86.1119 29.9253 86.6132 30.256C87.1252 30.576 87.4666 31.0133 87.6372 31.568L87.4932 31.472L87.6532 29.92H89.5892C89.5466 30.2507 89.5146 30.5867 89.4932 30.928C89.4719 31.2693 89.4612 31.6053 89.4612 31.936V37.68C89.4612 38.9493 89.1146 39.9147 88.4212 40.576C87.7386 41.248 86.7359 41.584 85.4132 41.584ZM85.3812 36.272C86.0212 36.272 86.5279 36.0587 86.9012 35.632C87.2852 35.1947 87.4772 34.576 87.4772 33.776C87.4772 32.976 87.2852 32.3627 86.9012 31.936C86.5279 31.5093 86.0212 31.296 85.3812 31.296C84.7306 31.296 84.2132 31.5093 83.8292 31.936C83.4452 32.3627 83.2532 32.976 83.2532 33.776C83.2532 34.576 83.4452 35.1947 83.8292 35.632C84.2132 36.0587 84.7306 36.272 85.3812 36.272ZM91.2224 38V26.224H93.2224V38H91.2224ZM98.8983 38.16C97.5436 38.16 96.4823 37.7867 95.7143 37.04C94.9463 36.2933 94.5623 35.2693 94.5623 33.968C94.5623 33.1253 94.7276 32.3893 95.0583 31.76C95.3889 31.1307 95.8476 30.64 96.4343 30.288C97.0316 29.936 97.7249 29.76 98.5143 29.76C99.2929 29.76 99.9436 29.9253 100.466 30.256C100.989 30.5867 101.384 31.0507 101.65 31.648C101.928 32.2453 102.066 32.944 102.066 33.744V34.272H96.1783V33.216H100.642L100.37 33.44C100.37 32.6933 100.21 32.1227 99.8903 31.728C99.5809 31.3333 99.1276 31.136 98.5303 31.136C97.8689 31.136 97.3569 31.3707 96.9943 31.84C96.6423 32.3093 96.4663 32.9653 96.4663 33.808V34.016C96.4663 34.8907 96.6796 35.5467 97.1063 35.984C97.5436 36.4107 98.1569 36.624 98.9463 36.624C99.4049 36.624 99.8316 36.5653 100.226 36.448C100.632 36.32 101.016 36.1173 101.378 35.84L101.97 37.184C101.586 37.4933 101.128 37.7333 100.594 37.904C100.061 38.0747 99.4956 38.16 98.8983 38.16ZM107.511 38V26.72H112.519C113.756 26.72 114.7 27.0187 115.351 27.616C116.001 28.2133 116.327 29.0347 116.327 30.08C116.327 31.1147 116.001 31.936 115.351 32.544C114.7 33.152 113.756 33.456 112.519 33.456H109.575V38H107.511ZM109.575 31.824H112.279C112.961 31.824 113.473 31.6747 113.815 31.376C114.156 31.0667 114.327 30.6347 114.327 30.08C114.327 29.5253 114.156 29.0987 113.815 28.8C113.473 28.4907 112.961 28.336 112.279 28.336H109.575V31.824ZM117.607 38V26.224H119.607V38H117.607ZM124.499 38.16C123.795 38.16 123.176 37.9947 122.643 37.664C122.109 37.3227 121.693 36.8373 121.395 36.208C121.096 35.5787 120.947 34.8267 120.947 33.952C120.947 33.0773 121.096 32.3307 121.395 31.712C121.693 31.0827 122.109 30.6027 122.643 30.272C123.176 29.9307 123.795 29.76 124.499 29.76C125.181 29.76 125.779 29.9307 126.291 30.272C126.813 30.6027 127.16 31.0507 127.331 31.616H127.155L127.331 29.92H129.251C129.219 30.2507 129.187 30.5867 129.155 30.928C129.133 31.2693 129.123 31.6053 129.123 31.936V38H127.139L127.123 36.336H127.315C127.144 36.8907 126.797 37.3333 126.275 37.664C125.752 37.9947 125.16 38.16 124.499 38.16ZM125.059 36.624C125.688 36.624 126.195 36.4053 126.579 35.968C126.963 35.52 127.155 34.848 127.155 33.952C127.155 33.056 126.963 32.3893 126.579 31.952C126.195 31.5147 125.688 31.296 125.059 31.296C124.429 31.296 123.923 31.5147 123.539 31.952C123.155 32.3893 122.963 33.056 122.963 33.952C122.963 34.848 123.149 35.52 123.523 35.968C123.907 36.4053 124.419 36.624 125.059 36.624ZM130.662 41.632L130.198 40.048C130.7 39.9413 131.121 39.8187 131.462 39.68C131.804 39.5413 132.086 39.36 132.31 39.136C132.534 38.912 132.721 38.624 132.87 38.272L133.27 37.328L133.222 38.112L129.702 29.92H131.83L134.358 36.224H133.894L136.438 29.92H138.454L134.774 38.448C134.529 39.024 134.262 39.4987 133.974 39.872C133.686 40.256 133.377 40.56 133.046 40.784C132.716 41.0187 132.353 41.2 131.958 41.328C131.564 41.456 131.132 41.5573 130.662 41.632Z" fill="white"/>
<path d="M55.18 20.1C54.3867 20.1 53.72 19.9533 53.18 19.66C52.64 19.3667 52.2333 18.95 51.96 18.41C51.6867 17.87 51.55 17.23 51.55 16.49C51.55 15.7433 51.6967 15.1 51.99 14.56C52.2833 14.0133 52.7033 13.5933 53.25 13.3C53.8033 13 54.4667 12.85 55.24 12.85C55.7533 12.85 56.2033 12.92 56.59 13.06C56.9767 13.1933 57.3167 13.39 57.61 13.65L57.18 14.65C56.9667 14.4833 56.7633 14.35 56.57 14.25C56.3767 14.15 56.1767 14.08 55.97 14.04C55.7633 13.9933 55.5233 13.97 55.25 13.97C54.4767 13.97 53.89 14.19 53.49 14.63C53.0967 15.0633 52.9 15.6867 52.9 16.5C52.9 17.3133 53.0867 17.9333 53.46 18.36C53.84 18.7867 54.4333 19 55.24 19C55.5133 19 55.7867 18.9733 56.06 18.92C56.34 18.8667 56.6133 18.79 56.88 18.69L56.64 19.23V17.12H54.99V16.18H57.71V19.57C57.3833 19.7367 56.9933 19.8667 56.54 19.96C56.0867 20.0533 55.6333 20.1 55.18 20.1ZM61.2723 20.1C60.4257 20.1 59.7623 19.8667 59.2823 19.4C58.8023 18.9333 58.5623 18.2933 58.5623 17.48C58.5623 16.9533 58.6657 16.4933 58.8723 16.1C59.079 15.7067 59.3657 15.4 59.7323 15.18C60.1057 14.96 60.539 14.85 61.0323 14.85C61.519 14.85 61.9257 14.9533 62.2523 15.16C62.579 15.3667 62.8257 15.6567 62.9923 16.03C63.1657 16.4033 63.2523 16.84 63.2523 17.34V17.67H59.5723V17.01H62.3623L62.1923 17.15C62.1923 16.6833 62.0923 16.3267 61.8923 16.08C61.699 15.8333 61.4157 15.71 61.0423 15.71C60.629 15.71 60.309 15.8567 60.0823 16.15C59.8623 16.4433 59.7523 16.8533 59.7523 17.38V17.51C59.7523 18.0567 59.8857 18.4667 60.1523 18.74C60.4257 19.0067 60.809 19.14 61.3023 19.14C61.589 19.14 61.8557 19.1033 62.1023 19.03C62.3557 18.95 62.5957 18.8233 62.8223 18.65L63.1923 19.49C62.9523 19.6833 62.6657 19.8333 62.3323 19.94C61.999 20.0467 61.6457 20.1 61.2723 20.1ZM66.2013 20.1C65.6013 20.1 65.148 19.9433 64.8413 19.63C64.5347 19.3167 64.3813 18.8467 64.3813 18.22V15.89H63.4113V14.95H64.3813V13.66L65.6313 13.34V14.95H66.9813V15.89H65.6313V18.14C65.6313 18.4867 65.698 18.73 65.8313 18.87C65.9647 19.01 66.148 19.08 66.3813 19.08C66.508 19.08 66.6147 19.07 66.7013 19.05C66.7947 19.03 66.8847 19.0033 66.9713 18.97V19.96C66.858 20.0067 66.7313 20.04 66.5913 20.06C66.458 20.0867 66.328 20.1 66.2013 20.1ZM70.0745 20V14.95H71.3245V20H70.0745ZM70.0045 14V12.78H71.3945V14H70.0045ZM74.592 20.1C73.992 20.1 73.5386 19.9433 73.232 19.63C72.9253 19.3167 72.772 18.8467 72.772 18.22V15.89H71.802V14.95H72.772V13.66L74.022 13.34V14.95H75.372V15.89H74.022V18.14C74.022 18.4867 74.0886 18.73 74.222 18.87C74.3553 19.01 74.5386 19.08 74.772 19.08C74.8986 19.08 75.0053 19.07 75.092 19.05C75.1853 19.03 75.2753 19.0033 75.362 18.97V19.96C75.2486 20.0067 75.122 20.04 74.982 20.06C74.8486 20.0867 74.7186 20.1 74.592 20.1ZM80.7452 20.1C80.2252 20.1 79.7752 19.9933 79.3952 19.78C79.0152 19.5667 78.7185 19.2633 78.5052 18.87C78.2985 18.4767 78.1952 18.01 78.1952 17.47C78.1952 16.93 78.2985 16.4667 78.5052 16.08C78.7185 15.6867 79.0152 15.3833 79.3952 15.17C79.7752 14.9567 80.2252 14.85 80.7452 14.85C81.2652 14.85 81.7152 14.9567 82.0952 15.17C82.4818 15.3833 82.7785 15.6867 82.9852 16.08C83.1985 16.4667 83.3052 16.93 83.3052 17.47C83.3052 18.01 83.1985 18.4767 82.9852 18.87C82.7785 19.2633 82.4818 19.5667 82.0952 19.78C81.7152 19.9933 81.2652 20.1 80.7452 20.1ZM80.7452 19.14C81.1385 19.14 81.4518 19.0033 81.6852 18.73C81.9185 18.45 82.0352 18.03 82.0352 17.47C82.0352 16.91 81.9185 16.4933 81.6852 16.22C81.4518 15.9467 81.1385 15.81 80.7452 15.81C80.3518 15.81 80.0385 15.9467 79.8052 16.22C79.5718 16.4933 79.4552 16.91 79.4552 17.47C79.4552 18.03 79.5718 18.45 79.8052 18.73C80.0385 19.0033 80.3518 19.14 80.7452 19.14ZM84.1331 20V16.21C84.1331 16.0033 84.1265 15.7933 84.1131 15.58C84.0998 15.3667 84.0798 15.1567 84.0531 14.95H85.2631L85.3631 15.95H85.2431C85.4031 15.5967 85.6398 15.3267 85.9531 15.14C86.2665 14.9467 86.6298 14.85 87.0431 14.85C87.6365 14.85 88.0831 15.0167 88.3831 15.35C88.6831 15.6833 88.8331 16.2033 88.8331 16.91V20H87.5831V16.97C87.5831 16.5633 87.5031 16.2733 87.3431 16.1C87.1898 15.92 86.9565 15.83 86.6431 15.83C86.2565 15.83 85.9498 15.95 85.7231 16.19C85.4965 16.43 85.3831 16.75 85.3831 17.15V20H84.1331Z" fill="white"/>
<g clip-path="url(#clip0_1237_25170)">
<path d="M12.114 8.31805C11.752 8.59006 11.5004 9.00891 11.5 9.49213V42.4996C11.5 42.9898 11.7519 43.4055 12.1167 43.6794L30.6236 26L12.114 8.31805Z" fill="#29B6F6"/>
<path d="M12.114 8.31805C11.752 8.59006 11.5004 9.00891 11.5 9.49213V42.4996C11.5 42.9898 11.7519 43.4055 12.1167 43.6794L30.6236 26L12.114 8.31805Z" fill="url(#paint0_linear_1237_25170)"/>
<path d="M36.3246 20.5543C28.7392 16.3409 19.3165 11.1793 13.6954 8.17203C13.1471 7.87961 12.5495 7.99085 12.1143 8.31806L30.6239 26L36.3246 20.5543Z" fill="#00E676"/>
<path d="M36.3246 20.5543C28.7392 16.3409 19.3165 11.1793 13.6954 8.17203C13.1471 7.87961 12.5495 7.99085 12.1143 8.31806L30.6239 26L36.3246 20.5543Z" fill="url(#paint1_linear_1237_25170)"/>
<path d="M12.1172 43.6794C12.3679 43.8677 12.6637 44 13.0005 44C13.2378 44 13.4714 43.9392 13.6948 43.8197C19.3152 40.8132 28.7352 35.6532 36.3195 31.4407L30.6241 26L12.1172 43.6794Z" fill="#F44336"/>
<path d="M12.1172 43.6794C12.3679 43.8677 12.6637 44 13.0005 44C13.2378 44 13.4714 43.9392 13.6948 43.8197C19.3152 40.8132 28.7352 35.6532 36.3195 31.4407L30.6241 26L12.1172 43.6794Z" fill="url(#paint2_linear_1237_25170)"/>
<path d="M43.7372 24.7029C41.7183 23.5598 39.1447 22.1206 36.3246 20.5543L30.624 26L36.3194 31.4407C39.1415 29.8733 41.717 28.4332 43.7372 27.2896C44.2082 27.023 44.5004 26.5277 44.5004 25.9959C44.5004 25.4641 44.2082 24.9688 43.7372 24.7029Z" fill="#FFEA00"/>
<path d="M43.7372 24.7029C41.7183 23.5598 39.1447 22.1206 36.3246 20.5543L30.624 26L36.3194 31.4407C39.1415 29.8733 41.717 28.4332 43.7372 27.2896C44.2082 27.023 44.5004 26.5277 44.5004 25.9959C44.5004 25.4641 44.2082 24.9688 43.7372 24.7029Z" fill="url(#paint3_linear_1237_25170)"/>
<path opacity="0.2" d="M13.5882 8.54702C21.3569 12.6722 36.3497 20.8603 43.8549 25.0779C44.1289 25.2314 44.333 25.4661 44.4648 25.7356C44.386 25.3074 44.1292 24.9243 43.7371 24.7029C36.2876 20.4853 21.4063 12.2972 13.6953 8.17202C12.7732 7.6802 11.7058 8.311 11.5352 9.24099C11.8873 8.53128 12.7914 8.12515 13.5882 8.54702Z" fill="white"/>
<path opacity="0.1" d="M13.5882 43.453C21.3569 39.3278 36.3497 31.1397 43.8549 26.9221C44.1289 26.7686 44.333 26.5339 44.4648 26.2644C44.386 26.6926 44.1292 27.0757 43.7371 27.2971C36.2876 31.5147 21.4063 39.7028 13.6953 43.828C12.7732 44.3198 11.7058 43.689 11.5352 42.759C11.8873 43.4687 12.7914 43.8748 13.5882 43.453Z" fill="black"/>
<path d="M43.7368 24.7013C41.7179 23.5582 19.3162 11.1766 13.6951 8.16917C13.1468 7.87673 12.5492 7.98798 12.114 8.31521C11.752 8.58724 11.5004 9.00612 11.5 9.48938V42.4995C11.5 42.9897 11.7519 43.4054 12.1167 43.6794C12.3674 43.8677 12.6632 44 13 44C13.2373 44 13.4709 43.9392 13.6943 43.8197C19.3148 40.813 41.7166 28.432 43.7368 27.2883C44.2078 27.0217 44.5 26.5263 44.5 25.9944C44.5 25.4626 44.2078 24.9672 43.7368 24.7013Z" fill="url(#paint4_linear_1237_25170)"/>
</g>
<defs>
<linearGradient id="paint0_linear_1237_25170" x1="21.0618" y1="11.1393" x2="21.0618" y2="35.0049" gradientUnits="userSpaceOnUse">
<stop stop-color="#00B8D4" stop-opacity="0"/>
<stop offset="1" stop-color="white" stop-opacity="0.3"/>
</linearGradient>
<linearGradient id="paint1_linear_1237_25170" x1="10.5506" y1="11.6714" x2="35.1235" y2="23.13" gradientUnits="userSpaceOnUse">
<stop stop-color="white" stop-opacity="0.2"/>
<stop offset="1" stop-color="white" stop-opacity="0"/>
</linearGradient>
<linearGradient id="paint2_linear_1237_25170" x1="21.2274" y1="34.5691" x2="27.2093" y2="40.551" gradientUnits="userSpaceOnUse">
<stop stop-opacity="0.1"/>
<stop offset="1" stop-opacity="0"/>
</linearGradient>
<linearGradient id="paint3_linear_1237_25170" x1="34.2462" y1="22.3778" x2="41.4867" y2="29.6183" gradientUnits="userSpaceOnUse">
<stop stop-opacity="0.05"/>
<stop offset="1" stop-opacity="0"/>
</linearGradient>
<linearGradient id="paint4_linear_1237_25170" x1="5.33128" y1="22.413" x2="38.9998" y2="38.1129" gradientUnits="userSpaceOnUse">
<stop stop-color="white" stop-opacity="0.2"/>
<stop offset="1" stop-color="white" stop-opacity="0"/>
</linearGradient>
<clipPath id="clip0_1237_25170">
<rect width="36" height="36" fill="white" transform="translate(10 8)"/>
</clipPath>
</defs>
</svg>
