<svg width="96" height="53" viewBox="0 0 96 53" fill="none" xmlns="http://www.w3.org/2000/svg">
<g clip-path="url(#clip0_1277_1279)">
<g clip-path="url(#clip1_1277_1279)">
<g clip-path="url(#clip2_1277_1279)">
<g clip-path="url(#clip3_1277_1279)">
<g clip-path="url(#clip4_1277_1279)">
<g clip-path="url(#clip5_1277_1279)">
<g clip-path="url(#clip6_1277_1279)">
<path d="M2.50683 32.0092H9.93797V33.5118H0.000976562V19.4876H2.50683V32.0092ZM17.2827 21.1905L14.6904 28.6033H20.0478L17.4555 21.1905H17.2827ZM15.3817 19.4876H19.3565L24.2818 33.5118H21.7932L20.6526 30.1059H14.0856L12.945 33.5118H10.4564L15.3817 19.4876ZM32.0586 20.4893H34.9965L37.6924 31.6085H37.8652L40.7859 19.4876H43.2917L39.9218 33.5118H36.2062L33.6139 22.7933H33.4411L30.8489 33.5118H27.1333L23.7634 19.4876H26.2692L29.1898 31.6085H29.3626L32.0586 20.4893ZM44.8436 19.4876H51.065C51.9291 19.4876 52.7045 19.5971 53.3911 19.8162C54.0755 20.0379 54.6539 20.3584 55.1262 20.7778C55.5986 21.1999 55.9615 21.7141 56.215 22.3205C56.4684 22.9295 56.5952 23.6214 56.5952 24.3961C56.5952 25.1707 56.4684 25.8626 56.215 26.4716C55.9615 27.078 55.5986 27.5909 55.1262 28.0103C54.6539 28.4324 54.0755 28.7529 53.3911 28.9719C52.7045 29.1937 51.9291 29.3045 51.065 29.3045H47.3495V33.5118H44.8436V19.4876ZM51.065 20.9902H47.3495V27.8019H51.065C51.9752 27.8019 52.6814 27.5255 53.1838 26.9725C53.6838 26.4169 53.9338 25.5581 53.9338 24.3961C53.9338 23.2341 53.6838 22.3752 53.1838 21.8196C52.6814 21.2667 51.9752 20.9902 51.065 20.9902ZM61.002 32.0092H68.4332V33.5118H58.4962V19.4876H61.002V32.0092ZM75.3458 20.4893C74.7583 20.4893 74.2076 20.6095 73.6937 20.85C73.1822 21.0904 72.7363 21.4577 72.3561 21.9519C71.9759 22.446 71.6729 23.0698 71.4471 23.8231C71.2236 24.579 71.1118 25.4712 71.1118 26.4997C71.1118 27.5281 71.2236 28.419 71.4471 29.1723C71.6729 29.9283 71.9759 30.5533 72.3561 31.0475C72.7363 31.5417 73.1822 31.909 73.6937 32.1494C74.2076 32.3898 74.7583 32.51 75.3458 32.51C75.9334 32.51 76.483 32.3898 76.9945 32.1494C77.5084 31.909 77.9554 31.5417 78.3356 31.0475C78.7158 30.5533 79.0176 29.9283 79.2411 29.1723C79.467 28.419 79.5799 27.5281 79.5799 26.4997C79.5799 25.4712 79.467 24.579 79.2411 23.8231C79.0176 23.0698 78.7158 22.446 78.3356 21.9519C77.9554 21.4577 77.5084 21.0904 76.9945 20.85C76.483 20.6095 75.9334 20.4893 75.3458 20.4893ZM75.3458 19.0869C76.3828 19.0869 77.324 19.2472 78.1697 19.5677C79.0176 19.8883 79.7435 20.3624 80.3472 20.9902C80.9532 21.6179 81.4233 22.3926 81.7574 23.3142C82.0915 24.2358 82.2585 25.2976 82.2585 26.4997C82.2585 27.7018 82.0915 28.7636 81.7574 29.6852C81.4233 30.6068 80.9532 31.3814 80.3472 32.0092C79.7435 32.6369 79.0176 33.1111 78.1697 33.4316C77.324 33.7522 76.3828 33.9125 75.3458 33.9125C74.3089 33.9125 73.3642 33.7522 72.5117 33.4316C71.6591 33.1111 70.9298 32.6369 70.3238 32.0092C69.7201 31.3814 69.2535 30.6068 68.924 29.6852C68.5968 28.7636 68.4332 27.7018 68.4332 26.4997C68.4332 25.2976 68.5968 24.2358 68.924 23.3142C69.2535 22.3926 69.7201 21.6179 70.3238 20.9902C70.9298 20.3624 71.6591 19.8883 72.5117 19.5677C73.3642 19.2472 74.3089 19.0869 75.3458 19.0869ZM95.9975 19.4876L90.381 29.3045V33.5118H87.8751V29.3045L82.2585 19.4876H85.0236L89.0848 26.5999H89.1712L93.2324 19.4876H95.9975Z" fill="white"/>
</g>
</g>
</g>
</g>
</g>
</g>
</g>
<path d="M14.6836 15.5872C23.6298 5.58752 35.5728 0 48 0C60.4273 0 72.3702 5.58752 81.3165 15.5872H80.1634C71.4675 6.06768 59.9602 0.764478 48 0.764478C36.0398 0.764478 24.5326 6.06768 15.8367 15.5872H14.6836ZM14.6836 37.4128C23.6298 47.4125 35.5728 53 48 53C60.4273 53 72.3702 47.4125 81.3165 37.4128H80.1634C71.4675 46.9323 59.9602 52.2355 48 52.2355C36.0398 52.2355 24.5326 46.9323 15.8367 37.4128H14.6836Z" fill="white"/>
<defs>
<clipPath id="clip0_1277_1279">
<rect width="96" height="14.8256" fill="white" transform="translate(0 19.0869)"/>
</clipPath>
<clipPath id="clip1_1277_1279">
<rect width="96" height="14.8256" fill="white" transform="translate(0 19.0869)"/>
</clipPath>
<clipPath id="clip2_1277_1279">
<rect width="96" height="14.8256" fill="white" transform="translate(0 19.0869)"/>
</clipPath>
<clipPath id="clip3_1277_1279">
<rect width="96" height="14.8256" fill="white" transform="translate(0 19.0869)"/>
</clipPath>
<clipPath id="clip4_1277_1279">
<rect width="96" height="14.8256" fill="white" transform="translate(0 19.0869)"/>
</clipPath>
<clipPath id="clip5_1277_1279">
<rect width="96" height="14.8256" fill="white" transform="translate(0 19.0869)"/>
</clipPath>
<clipPath id="clip6_1277_1279">
<rect width="96" height="14.8256" fill="white" transform="translate(0 19.0869)"/>
</clipPath>
</defs>
</svg>
