<svg width="96" height="53" viewBox="0 0 96 53" fill="none" xmlns="http://www.w3.org/2000/svg">
<g clip-path="url(#clip0_1237_25134)">
<g clip-path="url(#clip1_1237_25134)">
<g clip-path="url(#clip2_1237_25134)">
<g clip-path="url(#clip3_1237_25134)">
<g clip-path="url(#clip4_1237_25134)">
<g clip-path="url(#clip5_1237_25134)">
<g clip-path="url(#clip6_1237_25134)">
<path d="M2.50683 32.0093H9.93797V33.5119H0.000976562V19.4878H2.50683V32.0093ZM17.2827 21.1907L14.6904 28.6035H20.0478L17.4555 21.1907H17.2827ZM15.3817 19.4878H19.3565L24.2818 33.5119H21.7932L20.6526 30.1061H14.0856L12.945 33.5119H10.4564L15.3817 19.4878ZM32.0586 20.4895H34.9965L37.6924 31.6086H37.8652L40.7859 19.4878H43.2917L39.9218 33.5119H36.2062L33.6139 22.7935H33.4411L30.8489 33.5119H27.1333L23.7634 19.4878H26.2692L29.1898 31.6086H29.3626L32.0586 20.4895ZM44.8436 19.4878H51.065C51.9291 19.4878 52.7045 19.5973 53.3911 19.8163C54.0755 20.038 54.6539 20.3586 55.1262 20.778C55.5986 21.2 55.9615 21.7143 56.215 22.3206C56.4684 22.9297 56.5952 23.6215 56.5952 24.3962C56.5952 25.1709 56.4684 25.8627 56.215 26.4718C55.9615 27.0782 55.5986 27.5911 55.1262 28.0104C54.6539 28.4325 54.0755 28.7531 53.3911 28.9721C52.7045 29.1938 51.9291 29.3047 51.065 29.3047H47.3495V33.5119H44.8436V19.4878ZM51.065 20.9903H47.3495V27.8021H51.065C51.9752 27.8021 52.6814 27.5256 53.1838 26.9727C53.6838 26.417 53.9338 25.5582 53.9338 24.3962C53.9338 23.2342 53.6838 22.3754 53.1838 21.8198C52.6814 21.2668 51.9752 20.9903 51.065 20.9903ZM61.002 32.0093H68.4332V33.5119H58.4962V19.4878H61.002V32.0093ZM75.3458 20.4895C74.7583 20.4895 74.2076 20.6097 73.6937 20.8501C73.1822 21.0905 72.7363 21.4578 72.3561 21.952C71.9759 22.4462 71.6729 23.0699 71.4471 23.8232C71.2236 24.5792 71.1118 25.4714 71.1118 26.4998C71.1118 27.5283 71.2236 28.4191 71.4471 29.1724C71.6729 29.9284 71.9759 30.5535 72.3561 31.0477C72.7363 31.5419 73.1822 31.9092 73.6937 32.1496C74.2076 32.39 74.7583 32.5102 75.3458 32.5102C75.9334 32.5102 76.483 32.39 76.9945 32.1496C77.5084 31.9092 77.9554 31.5419 78.3356 31.0477C78.7158 30.5535 79.0176 29.9284 79.2411 29.1724C79.467 28.4191 79.5799 27.5283 79.5799 26.4998C79.5799 25.4714 79.467 24.5792 79.2411 23.8232C79.0176 23.0699 78.7158 22.4462 78.3356 21.952C77.9554 21.4578 77.5084 21.0905 76.9945 20.8501C76.483 20.6097 75.9334 20.4895 75.3458 20.4895ZM75.3458 19.0871C76.3828 19.0871 77.324 19.2473 78.1697 19.5679C79.0176 19.8884 79.7435 20.3626 80.3472 20.9903C80.9532 21.6181 81.4233 22.3928 81.7574 23.3144C82.0915 24.2359 82.2585 25.2978 82.2585 26.4998C82.2585 27.7019 82.0915 28.7637 81.7574 29.6853C81.4233 30.6069 80.9532 31.3816 80.3472 32.0093C79.7435 32.6371 79.0176 33.1112 78.1697 33.4318C77.324 33.7523 76.3828 33.9126 75.3458 33.9126C74.3089 33.9126 73.3642 33.7523 72.5117 33.4318C71.6591 33.1112 70.9298 32.6371 70.3238 32.0093C69.7201 31.3816 69.2535 30.6069 68.924 29.6853C68.5968 28.7637 68.4332 27.7019 68.4332 26.4998C68.4332 25.2978 68.5968 24.2359 68.924 23.3144C69.2535 22.3928 69.7201 21.6181 70.3238 20.9903C70.9298 20.3626 71.6591 19.8884 72.5117 19.5679C73.3642 19.2473 74.3089 19.0871 75.3458 19.0871ZM95.9975 19.4878L90.381 29.3047V33.5119H87.8751V29.3047L82.2585 19.4878H85.0236L89.0848 26.6H89.1712L93.2324 19.4878H95.9975Z" fill="#020E20"/>
</g>
</g>
</g>
</g>
</g>
</g>
</g>
<path d="M14.6836 15.5872C23.6298 5.58752 35.5728 0 48 0C60.4273 0 72.3702 5.58752 81.3165 15.5872H80.1634C71.4675 6.06768 59.9602 0.764478 48 0.764478C36.0398 0.764478 24.5326 6.06768 15.8367 15.5872H14.6836ZM14.6836 37.4128C23.6298 47.4125 35.5728 53 48 53C60.4273 53 72.3702 47.4125 81.3165 37.4128H80.1634C71.4675 46.9323 59.9602 52.2355 48 52.2355C36.0398 52.2355 24.5326 46.9323 15.8367 37.4128H14.6836Z" fill="#020E20"/>
<defs>
<clipPath id="clip0_1237_25134">
<rect width="96" height="14.8256" fill="white" transform="translate(0 19.0871)"/>
</clipPath>
<clipPath id="clip1_1237_25134">
<rect width="96" height="14.8256" fill="white" transform="translate(0 19.0871)"/>
</clipPath>
<clipPath id="clip2_1237_25134">
<rect width="96" height="14.8256" fill="white" transform="translate(0 19.0871)"/>
</clipPath>
<clipPath id="clip3_1237_25134">
<rect width="96" height="14.8256" fill="white" transform="translate(0 19.0871)"/>
</clipPath>
<clipPath id="clip4_1237_25134">
<rect width="96" height="14.8256" fill="white" transform="translate(0 19.0871)"/>
</clipPath>
<clipPath id="clip5_1237_25134">
<rect width="96" height="14.8256" fill="white" transform="translate(0 19.0871)"/>
</clipPath>
<clipPath id="clip6_1237_25134">
<rect width="96" height="14.8256" fill="white" transform="translate(0 19.0871)"/>
</clipPath>
</defs>
</svg>
