<svg width="24" height="24" viewBox="0 0 24 24" fill="none" xmlns="http://www.w3.org/2000/svg">
<path d="M22.3673 6.37776C21.6007 6.71854 20.7756 6.94841 19.9099 7.05128C20.7938 6.52211 21.4716 5.68391 21.7912 4.684C20.9644 5.17464 20.0492 5.53067 19.0742 5.72286C18.294 4.89143 17.1819 4.37158 15.9513 4.37158C13.5887 4.37158 11.6731 6.28716 11.6731 8.65021C11.6731 8.98506 11.7108 9.31145 11.784 9.62514C8.22802 9.44649 5.07504 7.74343 2.96473 5.15475C2.59643 5.78636 2.38561 6.52127 2.38561 7.30612C2.38561 8.79033 3.14083 10.1001 4.28891 10.8672C3.58787 10.8448 2.9279 10.6521 2.35089 10.3317C2.35047 10.3495 2.35047 10.3677 2.35047 10.3859C2.35047 12.4585 3.82536 14.1874 5.78285 14.5811C5.42387 14.6785 5.04583 14.731 4.65552 14.731C4.3795 14.731 4.11153 14.7043 3.85034 14.6539C4.39517 16.3536 5.97505 17.591 7.84702 17.6253C6.38271 18.7729 4.53825 19.457 2.53335 19.457C2.18833 19.457 1.84755 19.4367 1.5127 19.3969C3.40669 20.6115 5.65543 21.3193 8.07139 21.3193C15.9416 21.3193 20.2447 14.8 20.2447 9.14593C20.2447 8.96051 20.2409 8.77551 20.2329 8.59179C21.0685 7.98981 21.7941 7.23585 22.3673 6.37776Z" fill="white"/>
</svg>
