<svg width="74" height="74" viewBox="0 0 74 74" fill="none" xmlns="http://www.w3.org/2000/svg">
<circle cx="37" cy="37" r="37" fill="#F6EDD1"/>
<circle cx="37" cy="37" r="28" fill="#D3A518"/>
<path d="M42.8801 31.1201L28.9201 45.0801C28.4901 45.5101 27.7701 45.4701 27.4201 44.9801C26.9201 44.2901 26.8201 43.3301 27.3401 42.5001L30.1001 38.0701C30.4701 37.4801 30.4701 36.5201 30.1001 35.9301L27.3401 31.5001C26.4101 30.0201 27.4801 28.1001 29.2201 28.1001H40.6701C41.3501 28.1001 42.1901 28.5701 42.5501 29.1401L43.0201 29.8801C43.2601 30.2801 43.2101 30.7901 42.8801 31.1201Z" fill="white"/>
<path d="M46.6299 38.11L41.4499 45.01C41.0899 45.5 40.2899 45.9 39.6699 45.9H32.5099C31.6199 45.9 31.1699 44.82 31.7999 44.19L43.3199 32.68C43.7699 32.23 44.5399 32.31 44.8799 32.86L46.7299 35.83C47.1299 36.47 47.0899 37.5 46.6299 38.11Z" fill="white"/>
</svg>
